<?xml version="1.0" encoding="UTF-8" standalone="no"?>
<!DOCTYPE svg PUBLIC "-//W3C//DTD SVG 1.1//EN" "http://www.w3.org/Graphics/SVG/1.1/DTD/svg11.dtd">
<svg width="100%" height="100%" viewBox="0 0 512 512" version="1.1" xmlns="http://www.w3.org/2000/svg" xmlns:xlink="http://www.w3.org/1999/xlink" xml:space="preserve" xmlns:serif="http://www.serif.com/" style="fill-rule:evenodd;clip-rule:evenodd;stroke-miterlimit:1.5;">
    <rect id="Logo" x="0" y="0" width="512" height="512" style="fill:none;"/>
    <g id="Logo1" serif:id="Logo">
        <g id="Logo2" serif:id="Logo">
            <g transform="matrix(1,0,0,1,-3,0)">
                <g transform="matrix(1,0,0,1,98.9205,-19.7191)">
                    <path d="M273.092,427.239L273.092,294.788L226.042,301.397L226.042,453.886L273.092,427.239Z" style="fill:rgb(163,191,202);"/>
                </g>
                <g transform="matrix(1,0,0,1,-101.351,-31.7937)">
                    <path d="M273.092,453.47L273.092,313.191L248.592,248.207L235.904,246.267L226.042,230.198L226.042,419.744L273.092,453.47Z" style="fill:rgb(163,191,202);"/>
                </g>
                <g transform="matrix(1.0367,0,0,1,-11.9252,0)">
                    <path d="M324.963,431.403L324.963,281.511C338.248,278.071 356.358,271.986 370.347,276.931L370.347,410.168" style="fill:none;stroke:rgb(5,27,48);stroke-width:19.64px;"/>
                </g>
                <path d="M275.255,440.03L275.255,341.561L226.042,325.113L226.042,440.03L275.255,440.03Z" style="fill:rgb(94,122,146);"/>
                <g transform="matrix(0.711118,0,0,0.697675,76.0356,87.4694)">
                    <path d="M508.624,296.133C473.493,438.617 393.021,508.742 256,512C115.761,515.334 34.994,415.939 3.376,296.133" style="fill:none;stroke:rgb(5,27,48);stroke-width:22.22px;stroke-linecap:round;stroke-linejoin:round;"/>
                </g>
                <g id="Dot">
                    <circle id="Dot1" serif:id="Dot" cx="146.201" cy="132.534" r="9.526" style="fill:rgb(5,27,48);"/>
                </g>
                <g id="Dot2" serif:id="Dot" transform="matrix(1,0,0,1,-57.0421,52.6744)">
                    <circle id="Dot3" serif:id="Dot" cx="146.201" cy="132.534" r="9.526" style="fill:rgb(5,27,48);"/>
                </g>
                <g id="Dot4" serif:id="Dot" transform="matrix(1,0,0,1,-66.5686,88.1726)">
                    <circle id="Dot5" serif:id="Dot" cx="146.201" cy="132.534" r="9.526" style="fill:rgb(5,27,48);"/>
                </g>
                <g id="Dot6" serif:id="Dot" transform="matrix(1,0,0,1,-71.565,123.466)">
                    <circle id="Dot7" serif:id="Dot" cx="146.201" cy="132.534" r="9.526" style="fill:rgb(5,27,48);"/>
                </g>
                <g id="Dot8" serif:id="Dot" transform="matrix(1,0,0,1,109.799,-42.1029)">
                    <circle id="Dot9" serif:id="Dot" cx="146.201" cy="132.534" r="9.526" style="fill:rgb(5,27,48);"/>
                </g>
                <g id="Dot10" serif:id="Dot" transform="matrix(1,0,0,1,278.93,52.6744)">
                    <circle id="Dot11" serif:id="Dot" cx="146.201" cy="132.534" r="9.526" style="fill:rgb(5,27,48);"/>
                </g>
                <g id="Dot12" serif:id="Dot" transform="matrix(1,0,0,1,291.526,88.1726)">
                    <circle id="Dot13" serif:id="Dot" cx="146.201" cy="132.534" r="9.526" style="fill:rgb(5,27,48);"/>
                </g>
                <g id="Dot14" serif:id="Dot" transform="matrix(1,0,0,1,293.89,127.082)">
                    <circle id="Dot15" serif:id="Dot" cx="146.201" cy="132.534" r="9.526" style="fill:rgb(5,27,48);"/>
                </g>
                <path d="M275.255,440.03L275.255,340.102L224.042,325.113" style="fill:none;stroke:rgb(5,27,48);stroke-width:20px;"/>
                <g transform="matrix(1,0,0,1,2,0)">
                    <path d="M224.042,444.736L224.042,299.298" style="fill:none;stroke:rgb(5,27,48);stroke-width:20px;"/>
                </g>
                <g transform="matrix(1.09078,0,0,1.09078,-19.0724,-38.7589)">
                    <path d="M180.043,287.709L180.043,426.941" style="fill:none;stroke:rgb(5,27,48);stroke-width:18.34px;"/>
                </g>
                <g transform="matrix(1.09078,0,0,1.41614,-67.7039,-211.643)">
                    <g transform="matrix(0.916773,-0,-0,0.706144,64.8194,149.451)">
                        <path d="M467.927,141.285L476.065,66.728L402.211,79.791L467.927,141.285Z" style="fill:rgb(5,27,48);"/>
                        <path d="M443.268,101.776C410.8,136.474 365.906,184.45 365.906,184.45L334.595,158.136L266.312,230.75L231.004,201.771L186.369,242.741L125.684,195.793L125.684,392.966" style="fill:none;stroke:rgb(5,27,48);stroke-width:20px;"/>
                    </g>
                </g>
            </g>
            <g transform="matrix(0.871347,0,0,0.853875,32.9352,42.6938)">
                <path d="M490.726,153.735C504.408,185.064 512,219.652 512,256C512,397.29 397.29,512 256,512C114.71,512 0,397.29 0,256C0,114.71 114.71,0 256,0C307.104,0 354.731,15.007 394.71,40.85" style="fill:none;stroke:rgb(5,27,48);stroke-width:34.21px;stroke-linecap:round;stroke-linejoin:round;"/>
            </g>
        </g>
        <g transform="matrix(0.382864,0,0,0.382864,150.233,68.8736)">
            <path d="M217.021,167.042C235.652,157.559 247.309,140.858 244.586,113.035C240.919,75.012 208.06,62.262 166.58,58.631L166.572,5.89L134.433,5.89L134.424,57.244C125.968,57.244 117.348,57.41 108.767,57.582L108.76,5.897L76.65,5.894L76.644,58.622C69.685,58.764 62.851,58.899 56.178,58.899L56.178,58.743L11.848,58.725L11.854,93.007C11.854,93.007 35.588,92.561 35.197,92.994C48.21,93.003 52.459,100.553 53.681,107.07L53.691,167.153L53.691,251.55C53.118,255.64 50.707,262.175 41.608,262.187C42.022,262.551 18.229,262.183 18.229,262.183L11.854,300.518L53.671,300.518C61.463,300.527 69.119,300.648 76.63,300.708L76.658,354.046L108.76,354.055L108.751,301.276C117.583,301.456 126.108,301.534 134.435,301.523L134.426,354.055L166.564,354.055L166.582,300.806C220.604,297.706 258.424,284.109 263.126,233.421C266.916,192.612 247.692,174.396 217.021,167.042ZM109.535,95.321C127.661,95.321 184.667,89.554 184.675,127.385C184.667,163.654 127.679,159.417 109.535,159.417L109.535,95.321ZM109.521,262.447L109.535,191.775C131.313,191.769 199.62,185.514 199.629,227.095C199.638,266.971 131.313,262.431 109.521,262.447Z" style="fill:rgb(55,48,163);fill-rule:nonzero;"/>
        </g>
    </g>
</svg>
